<svg version="1" xmlns="http://www.w3.org/2000/svg" width="2418.667" height="2418.667" viewBox="0 0 1814.000000 1814.000000"><path d="M2 557.5V712h696.1c620.1 0 696.1-.2 695.5-1.5-.6-1.7-15.9-27.7-67.9-115.5-18.8-31.6-37.7-63.7-42.1-71.2-4.5-7.6-22.4-37.8-40-67.3l-31.8-53.5H2v154.5zM216 447c18.4 2.3 29.1 6.8 39.6 16.6 5.5 5.3 8.9 10.9 12 20.1 2.2 6.5 2.7 9.6 2.7 18.8.1 19.1-4.6 30.9-16.8 42.3-8.1 7.6-13.9 11-23.9 14.3l-6.9 2.2 6 2.7c13.7 6.2 22.7 18.4 42.8 57.2 8.2 15.8 15 28.7 15.1 28.5.2-.2 13.1-34.7 62.8-167.7l13.3-35.5 35.5-.3 35.4-.2 14.9 39.7c8.1 21.9 25.3 67.9 38.2 102.2 12.8 34.3 23.3 62.8 23.3 63.3 0 .4-15 .8-33.3.8h-33.3l-5.1-16.8-5.1-16.7h-71.6l-5 16.8-5 16.7-68.8-.2-68.9-.3-18.3-33.8c-10-18.6-19.7-35.9-21.6-38.5-4.6-6.2-12.3-10.2-19.7-10.2H149v83H84V446h61.8c36.7 0 65.2.4 70.2 1zm379 76.5V601l49.8.2 49.7.3v50l-81.7.3-81.8.2V446h64v77.5zm192 0V601h99v51H722V549.7c0-56.3.3-102.7.7-103 .3-.4 15-.7 32.5-.7H787v77.5zM961.7 477c10.1 16.8 19.3 32 20.4 33.9l2 3.4 17.1-28.4c9.3-15.6 18.6-31 20.7-34.1l3.6-5.8h35.3c19.3 0 35.2.3 35.2.6 0 .7-72.6 109.8-76.7 115.2l-3.3 4.4V652h-64v-85.5l-29.2-43.6c-16.1-24-33.9-50.5-39.6-58.8-5.7-8.4-10.6-15.9-10.9-16.7-.4-1.2 4.2-1.4 35.3-1.2l35.8.3 18.3 30.5z"/><path d="M149 508.4V529h14.9c30.4 0 41.1-5.5 41.1-21.1 0-8.3-2.9-13.2-9.8-16.6-5.5-2.7-6.2-2.8-25.9-3.1l-20.3-.4v20.6zM393 517.3c-2.4 8.4-7.2 23.9-10.7 34.6-3.5 10.6-6.3 19.8-6.3 20.2 0 .5 9.8.9 21.9.9h21.9l-2.9-9.3c-1.6-5-6.4-20.7-10.6-34.7-4.2-14-7.9-25.8-8.2-26.2-.3-.4-2.6 6.1-5.1 14.5zM2 906v155h798.5c439.2 0 798.5-.2 798.5-.5 0-.7-6.6-12-40.4-69.5-13.7-23.4-26.1-44.3-27.6-46.5-1.4-2.2-7.1-11.7-12.5-21-5.4-9.4-26.2-44.7-46.1-78.5-19.9-33.8-37.4-63.7-38.9-66.4-1.5-2.7-5.7-9.9-9.4-16l-6.6-11.1-707.7-.3L2 751v155zm657.5-105.5c32.7 6.3 52.4 23.3 65.6 56.7 1.1 2.8 1.8 5.2 1.7 5.3-.5.6-56 12.7-56.3 12.3-.1-.2-1.6-3.3-3.3-6.9-5.3-11.7-15.3-19.3-27.5-20.7-24-2.8-40.5 10.3-45.3 35.9-2.1 10.7-1.4 41 1 50.6 3.4 13.6 9.3 21.4 19.5 26.1 8.1 3.8 21.2 4.3 31.1 1.3 5.8-1.8 8.2-3.2 12-7 5.3-5.3 11.2-16.5 13.1-24.9.8-3.3 1.8-5.2 2.7-5.2.8 0 13.5 3.7 28.3 8.2 25.1 7.6 26.9 8.3 26.4 10.2-4.6 16.6-9.5 27.1-17.7 38-17.9 23.8-47.8 34.1-89.7 30.8-38.2-3-59.3-14.9-77.6-43.7-8.8-13.8-14.1-33.1-15.2-55.3-2.3-48.3 14.6-84.2 47.6-101.5 12.8-6.7 24.4-9.9 43.1-12.1 7-.8 32.7.4 40.5 1.9zm590 0c26.4 4.3 44.1 16.7 55 38.5 3.6 7.3 7 16.9 6.2 17.6-.3.3-13.1 2.8-28.4 5.5-15.3 2.7-29 5.1-30.5 5.4-2.4.6-2.9.1-5.9-5.5-5.9-11.2-15-16.7-29.1-17.7-13.9-.9-25.1 2.9-33.9 11.7-5.7 5.7-9.3 12.5-12.1 22.8-1.8 6.6-2.1 10.4-2.1 26.2 0 20.3 1.4 28.4 6.8 39 11.9 23.4 42.9 28.8 73.8 12.8l7.7-4V934h-42v-44h99v88.8l-8.2 5.4c-11.2 7.2-30.5 16.8-40.3 20-23.9 7.8-58.8 9.8-84.5 4.8-31-6-52.3-21.6-65.5-48-7.7-15.3-11.2-29.6-12.2-49.5-1.3-25.8 4.2-49.7 15.9-69.2 4.7-7.9 16.8-20.5 24.6-25.7 16.8-11 31.4-15.8 55.2-18 8.8-.8 41.7.4 50.5 1.9zM226 803c18.9 2.3 30.1 6.9 38.8 15.7 6.5 6.5 11.4 15.2 13.7 23.8 2 7.8 2 25.2 0 33-4.7 17.7-19.4 33-37.7 39.1l-8.1 2.7 6.9 3.2c5.1 2.4 8.6 5 13.5 10.1 9.1 9.6 10.7 12.2 27.3 44.6 8.1 15.8 15.1 29 15.5 29.3.5.3 17.9-45.1 38.8-100.8l37.8-101.2 35.5-.3 35.5-.2 32.4 86.7c17.9 47.8 33.5 89 34.7 91.8 2.1 4.7 10.4 26.3 10.4 27.1 0 .2-15.2.4-33.8.4h-33.8l-1.6-5.3c-.9-2.8-3.3-10.5-5.3-17l-3.6-11.7-35.7.2-35.7.3-4.5 15c-2.5 8.2-4.8 15.8-5.2 16.8-.7 1.6-4.7 1.7-69.4 1.5l-68.6-.3-18.9-35c-10.4-19.3-20.2-36.6-21.8-38.5-4.3-5.3-10.2-8.2-18.2-8.8l-6.9-.5V1008l-32.2-.2-32.3-.3-.3-102.8L93 802h62.3c36.8 0 65.7.4 70.7 1zm600.8 100c.1 55.3 0 101.5-.3 102.7l-.5 2.3h-64V802l32.3.2 32.2.3.3 100.5zm141.7-47c20 29.4 37.3 54.6 38.4 56l2 2.5.1-56.3V802h61l-.2 102.7-.3 102.8-30.5.3-30.6.2-33.5-49.2c-18.4-27.1-35.3-52.1-37.4-55.5-2.2-3.5-4.3-6.3-4.7-6.3-.5 0-.8 25-.8 55.5v55.5h-60l-.2-102.6c-.2-56.4-.1-102.8.1-103 .3-.2 13.9-.3 30.4-.2l29.9.3 36.3 53.5z"/><path d="M158.5 845.2c-.3.7-.4 9.9-.3 20.3l.3 19 12.9.3c13.8.3 28.3-1.6 34.3-4.5 8.4-3.9 11.9-17.2 7.1-26.3-1.8-3.3-3.7-5.1-7.3-7-4.7-2.4-5.8-2.5-25.7-2.8-16.9-.3-20.9-.1-21.3 1zM405.8 863.2c-2.6 8.9-19 63.2-19.5 64.5-.4 1 4.2 1.3 21.1 1.3 11.9 0 21.6-.3 21.6-.8 0-1.7-19.7-66.8-21-69-.4-.9-1.3.6-2.2 4zM1.7 1152.7c-.4 26.9-1 96.2-1.4 154L-.3 1412h1810.4l-1.2-2.1c-.6-1.1-8.4-14.1-17.3-28.7-19.1-31.4-42.5-70.5-94-156.7-20.7-34.7-39.2-65.5-41.1-68.5-2-3-9.7-15.9-17.3-28.5l-13.8-23-811.5-.3-811.6-.2-.6 48.7zm175.9 12.3c.7 2.5 7.6 29.7 15.5 60.5 7.8 30.8 14.5 56.3 14.8 56.7.4.4 7.7-26.8 16.2-60.5l15.6-61.2 42.2-.3 42.1-.2v207h-53l-.2-74.6-.3-74.6-6.9 27.4c-3.9 15-7.3 28-7.8 28.8-.4.8-5.1 18.6-10.3 39.5-5.3 20.9-10.5 41.5-11.7 45.7l-2 7.8h-47.7l-1-3.8c-.5-2-9.2-35.9-19.1-75.2-10-39.3-18.4-71.7-18.6-71.9-.2-.2-.4 33.6-.4 75.2v75.7H92v-207l42.1.2 42.2.3 1.3 4.5zm358.2 17.4c.2 16.9-.1 22.1-1 22.8-.7.4-24.8.8-53.5.8H429v31h99v43h-99v40h110v47H364v-102.8c0-56.6.3-103.2.7-103.5.3-.4 38.9-.6 85.7-.5l85.1.3.3 21.9zm147.7-21.4c21.9 2.1 38.9 9.4 52.1 22.5 17.7 17.6 26 40.1 27.1 74.1.6 19-.6 34.9-3.7 46.6-4.8 18.4-15.2 34.4-29.4 45.3-9.2 7-17.3 10.6-31.6 14.1l-11.5 2.8-56.7.3-56.8.4v-102.9c0-56.6.3-103.2.7-103.5 1-1.1 97.8-.8 109.8.3zm179.3 102.7l.2 103.3h-64l-.2-101.8c-.2-55.9-.1-102.5.1-103.5.3-1.6 2.4-1.7 32-1.5l31.6.3.3 103.2zm196.1-40.2c36.5 97.1 53.1 141.9 53.1 142.7 0 .5-15.1.8-33.5.8h-33.4l-3-9.8c-1.6-5.3-3.9-13-5.1-17l-2.2-7.2h-35.3c-27.2 0-35.6.3-36.2 1.2-.4.7-2.9 8.3-5.4 16.8l-4.6 15.5-33.2.3c-18.2.1-33.1 0-33.1-.2s1.4-3.7 3-7.7c3.8-9 16.3-42.2 48.3-127.9 13.5-36 25-66.7 25.6-68.3l1.1-2.7 35.1.2 35.2.3 23.6 63z"/><path d="M638 1264v56.3l15.8-.6c19.8-.7 26.7-2.6 32.9-8.9 8.8-9 11.6-20 11.5-46.3 0-19.5-1.5-28.5-6.3-38.3-6-12.3-16.4-17-39.6-17.9l-14.3-.6v56.3zM987.9 1252c-5.8 19.3-10.3 35.2-10.1 35.5.3.3 10.2.5 22 .5 16.7 0 21.3-.3 21-1.3-.3-.6-5.2-16.6-10.9-35.4-5.7-18.9-10.6-34.3-10.9-34.3-.3 0-5.3 15.8-11.1 35z"/></svg>